#N canvas 0 0 1920 997 10;
#X declare -lib mrpeach;
#X obj 380 13 import mrpeach;
#X obj 33 344 udpsend;
#X obj 193 285 packOSC;
#X text 204 50 Boys' room;
#X text 236 104 Ladies' room;
#X msg 83 243 disconnect;
#X obj 657 15 udpreceive 80085;
#X msg 40 51 connect 10.10.80.48 80085;
#X msg 65 105 connect 10.10.80.49 80085;
#X obj 657 53 unpackOSC;
#X obj 40 23 bng 15 250 50 0 empty empty empty 17 7 0 10 -262144 -1
-1;
#X obj 65 78 bng 15 250 50 0 empty empty empty 17 7 0 10 -262144 -1
-1;
#X obj 84 159 bng 15 250 50 0 empty empty empty 17 7 0 10 -262144 -1
-1;
#X msg 84 186 connect localhost 80085;
#X text 245 187 Testing;
#X msg 194 244 send /trigger1;
#X obj 657 83 routeOSC /trigger1 /trigger2 /trigger3 /trigger4;
#X obj 657 116 bng 15 250 50 0 empty empty empty 17 7 0 10 -262144
-1 -1;
#X msg 385 96 \; pd dsp \$1;
#X obj 384 64 tgl 15 0 empty empty empty 17 7 0 10 -262144 -1 -1 1
1;
#X obj 384 35 loadbang;
#X obj 652 818 dac~ 1 2;
#X obj 640 432 soundfiler;
#N canvas 0 0 450 300 (subpatch) 0;
#X array sf-trigger1 77971 float 0;
#X coords 0 1 77971 -1 130 70 1;
#X restore 126 444 graph;
#X obj 640 599 tabplay~ sf-trigger1;
#X obj 657 141 s trigger1;
#X obj 653 578 r trigger1;
#X obj 728 116 bng 15 250 50 0 empty empty empty 17 7 0 10 -262144
-1 -1;
#X obj 728 141 s trigger2;
#X obj 799 115 bng 15 250 50 0 empty empty empty 17 7 0 10 -262144
-1 -1;
#X obj 799 140 s trigger3;
#X obj 870 115 bng 15 250 50 0 empty empty empty 17 7 0 10 -262144
-1 -1;
#X obj 870 140 s trigger4;
#X msg 293 244 send /trigger2;
#X msg 392 243 send /trigger3;
#X msg 496 243 send /trigger4;
#X obj 640 306 bng 60 250 50 0 empty empty Drum_set 17 7 0 10 -4034
-1 -1;
#X obj 640 458 s file_trigger1;
#X obj 640 558 r file_trigger1;
#N canvas 0 0 450 300 (subpatch) 0;
#X array sf-trigger2 77971 float 0;
#X coords 0 1 77971 -1 130 70 1;
#X restore 122 542 graph;
#N canvas 0 0 450 300 (subpatch) 0;
#X array sf-trigger3 77971 float 0;
#X coords 0 1 77971 -1 130 70 1;
#X restore 118 641 graph;
#N canvas 0 0 450 300 (subpatch) 0;
#X array sf-trigger4 77971 float 0;
#X coords 0 1 77971 -1 130 70 1;
#X restore 116 744 graph;
#X obj 761 465 soundfiler;
#X obj 761 491 s file_trigger2;
#X obj 791 554 r file_trigger2;
#X obj 804 574 r trigger2;
#X obj 791 595 tabplay~ sf-trigger2;
#X msg 640 407 read kit1/171104__dwsd__kick-gettinglaid.wav sf-trigger1
;
#X msg 761 439 read kit1/13750__hookhead__snare-2.aif sf-trigger2;
#X obj 886 495 soundfiler;
#X obj 886 521 s file_trigger3;
#X msg 886 469 read kit1/802__bdu__closehatac.aif sf-trigger3;
#X obj 836 637 r file_trigger3;
#X obj 849 657 r trigger3;
#X obj 836 678 tabplay~ sf-trigger3;
#X obj 997 534 soundfiler;
#X msg 997 500 read kit1/162312__britishpirate93__18-inch-crash.wav
sf-trigger4;
#X obj 997 560 s file_trigger4;
#X obj 848 708 r file_trigger4;
#X obj 861 728 r trigger4;
#X obj 848 749 tabplay~ sf-trigger4;
#X obj 640 266 loadbang;
#X connect 2 0 1 0;
#X connect 5 0 1 0;
#X connect 6 0 9 0;
#X connect 7 0 1 0;
#X connect 8 0 1 0;
#X connect 9 0 16 0;
#X connect 10 0 7 0;
#X connect 11 0 8 0;
#X connect 12 0 13 0;
#X connect 13 0 1 0;
#X connect 15 0 2 0;
#X connect 16 0 17 0;
#X connect 16 1 27 0;
#X connect 16 2 29 0;
#X connect 16 3 31 0;
#X connect 17 0 25 0;
#X connect 19 0 18 0;
#X connect 20 0 19 0;
#X connect 22 0 37 0;
#X connect 24 0 21 0;
#X connect 24 0 21 1;
#X connect 26 0 24 0;
#X connect 27 0 28 0;
#X connect 29 0 30 0;
#X connect 31 0 32 0;
#X connect 33 0 2 0;
#X connect 34 0 2 0;
#X connect 35 0 2 0;
#X connect 36 0 47 0;
#X connect 36 0 48 0;
#X connect 36 0 51 0;
#X connect 36 0 56 0;
#X connect 38 0 24 0;
#X connect 42 0 43 0;
#X connect 44 0 46 0;
#X connect 45 0 46 0;
#X connect 46 0 21 0;
#X connect 46 0 21 1;
#X connect 47 0 22 0;
#X connect 48 0 42 0;
#X connect 49 0 50 0;
#X connect 51 0 49 0;
#X connect 52 0 54 0;
#X connect 53 0 54 0;
#X connect 54 0 21 0;
#X connect 54 0 21 1;
#X connect 55 0 57 0;
#X connect 56 0 55 0;
#X connect 58 0 60 0;
#X connect 59 0 60 0;
#X connect 60 0 21 0;
#X connect 60 0 21 1;
#X connect 61 0 36 0;
