#N canvas 0 0 1920 997 10;
#X declare -lib mrpeach;
#X obj -115 33 import mrpeach;
#X obj -462 364 udpsend;
#X obj -302 305 packOSC;
#X text -291 70 Boys' room;
#X text -259 124 Ladies' room;
#X msg -412 263 disconnect;
#X obj 162 35 udpreceive 80085;
#X msg -455 71 connect 10.10.80.48 80085;
#X msg -430 125 connect 10.10.80.49 80085;
#X obj 162 73 unpackOSC;
#X obj -455 43 bng 15 250 50 0 empty empty empty 17 7 0 10 -262144
-1 -1;
#X obj -430 98 bng 15 250 50 0 empty empty empty 17 7 0 10 -262144
-1 -1;
#X obj -411 179 bng 15 250 50 0 empty empty empty 17 7 0 10 -262144
-1 -1;
#X msg -411 206 connect localhost 80085;
#X text -250 207 Testing;
#X msg -301 264 send /trigger1;
#X obj 162 136 bng 15 250 50 0 empty empty empty 17 7 0 10 -262144
-1 -1;
#X msg -110 116 \; pd dsp \$1;
#X obj -111 84 tgl 15 0 empty empty empty 17 7 0 10 -262144 -1 -1 1
1;
#X obj -111 55 loadbang;
#X obj 387 968 dac~ 1 2;
#N canvas 0 0 450 300 (subpatch) 0;
#X array sf-trigger1 77971 float 0;
#X coords 0 1 77971 -1 130 70 1;
#X restore -458 457 graph;
#X obj 375 749 tabplay~ sf-trigger1;
#X obj 162 161 s trigger1;
#X obj 388 728 r trigger1;
#X obj 233 136 bng 15 250 50 0 empty empty empty 17 7 0 10 -262144
-1 -1;
#X obj 233 161 s trigger2;
#X obj 304 135 bng 15 250 50 0 empty empty empty 17 7 0 10 -262144
-1 -1;
#X obj 304 160 s trigger3;
#X obj 375 135 bng 15 250 50 0 empty empty empty 17 7 0 10 -262144
-1 -1;
#X obj 375 160 s trigger4;
#X msg -202 264 send /trigger2;
#X msg -103 263 send /trigger3;
#X msg 1 263 send /trigger4;
#X obj 564 403 bng 60 250 50 0 empty empty Drum_set 17 7 0 10 -4034
-1 -1;
#X obj 375 708 r file_trigger1;
#N canvas 0 0 450 300 (subpatch) 0;
#X array sf-trigger2 77971 float 0;
#X coords 0 1 77971 -1 130 70 1;
#X restore -462 555 graph;
#N canvas 0 0 450 300 (subpatch) 0;
#X array sf-trigger3 77971 float 0;
#X coords 0 1 77971 -1 130 70 1;
#X restore -462 654 graph;
#N canvas 0 0 450 300 (subpatch) 0;
#X array sf-trigger4 77971 float 0;
#X coords 0 1 77971 -1 130 70 1;
#X restore -462 757 graph;
#X obj 526 704 r file_trigger2;
#X obj 539 724 r trigger2;
#X obj 526 745 tabplay~ sf-trigger2;
#X obj 571 787 r file_trigger3;
#X obj 584 807 r trigger3;
#X obj 571 828 tabplay~ sf-trigger3;
#X obj 583 858 r file_trigger4;
#X obj 596 878 r trigger4;
#X obj 583 899 tabplay~ sf-trigger4;
#X obj 564 363 loadbang;
#X obj 301 379 key;
#X obj 280 540 s trigger1;
#X obj 309 520 s trigger2;
#X obj 338 501 s trigger3;
#X obj 367 481 s trigger4;
#X text 167 337 W = sample 1 A = sample 2 S = sample 3 D = sample 4
;
#X obj 280 363 tgl 15 0 empty empty Keyboard_control 17 7 0 10 -260097
-1 -1 1 1;
#X obj 280 410 gate;
#X text -459 417 LOCAL TRIGGERS;
#N canvas 0 0 450 300 (subpatch) 0;
#X array sf-remote1 77971 float 0;
#X coords 0 1 77971 -1 130 70 1;
#X restore -305 458 graph;
#N canvas 0 0 450 300 (subpatch) 0;
#X array sf-remote2 77971 float 0;
#X coords 0 1 77971 -1 130 70 1;
#X restore -309 556 graph;
#N canvas 0 0 450 300 (subpatch) 0;
#X array sf-remote3 77971 float 0;
#X coords 0 1 77971 -1 130 70 1;
#X restore -309 655 graph;
#N canvas 0 0 450 300 (subpatch) 0;
#X array sf-remote4 77971 float 0;
#X coords 0 1 77971 -1 130 70 1;
#X restore -309 758 graph;
#X text -306 418 REMOTE TRIGGERS;
#N canvas 1033 318 450 300 KIT1_LOCAL 0;
#X obj 62 123 soundfiler;
#X obj 62 149 s file_trigger1;
#X obj 183 156 soundfiler;
#X obj 183 182 s file_trigger2;
#X msg 62 98 read kit1/171104__dwsd__kick-gettinglaid.wav sf-trigger1
;
#X msg 183 130 read kit1/13750__hookhead__snare-2.aif sf-trigger2;
#X obj 308 186 soundfiler;
#X obj 308 212 s file_trigger3;
#X msg 308 160 read kit1/802__bdu__closehatac.aif sf-trigger3;
#X obj 419 225 soundfiler;
#X msg 419 191 read kit1/162312__britishpirate93__18-inch-crash.wav
sf-trigger4;
#X obj 419 251 s file_trigger4;
#X obj 63 26 inlet;
#X connect 0 0 1 0;
#X connect 2 0 3 0;
#X connect 4 0 0 0;
#X connect 5 0 2 0;
#X connect 6 0 7 0;
#X connect 8 0 6 0;
#X connect 9 0 11 0;
#X connect 10 0 9 0;
#X connect 12 0 4 0;
#X connect 12 0 5 0;
#X connect 12 0 8 0;
#X connect 12 0 10 0;
#X restore 564 486 pd KIT1_LOCAL;
#N canvas 1033 318 673 440 SECRET 0;
#X obj 62 123 soundfiler;
#X obj 62 26 inlet;
#X msg 62 98 read 245788__manchesterprod2__male-ahhhh.wav sf-secret1
;
#X obj 62 149 s file_secret1;
#X connect 0 0 3 0;
#X connect 1 0 2 0;
#X connect 2 0 0 0;
#X restore 798 436 pd SECRET SOUNDS;
#N canvas 0 0 450 300 (subpatch) 0;
#X array sf-secret1 77971 float 0;
#X coords 0 1 77971 -1 130 70 1;
#X restore -144 455 graph;
#X text -145 415 SECRET TRIGGERS;
#X obj 228 716 r file_secret1;
#X obj 241 736 r secret1;
#X obj 228 757 tabplay~ sf-secret1;
#X obj 162 103 routeOSC /trigger1 /trigger2 /trigger3 /trigger4;
#X obj 585 135 bng 15 250 50 0 empty empty empty 17 7 0 10 -262144
-1 -1;
#X obj 585 102 routeOSC /secret1;
#X obj 585 160 s secret1;
#X floatatom 346 416 5 0 0 0 - - -;
#X obj 280 448 route 119 97 115 100 45;
#X obj 422 513 s secret1;
#X connect 2 0 1 0;
#X connect 5 0 1 0;
#X connect 6 0 9 0;
#X connect 7 0 1 0;
#X connect 8 0 1 0;
#X connect 9 0 70 0;
#X connect 9 0 72 0;
#X connect 10 0 7 0;
#X connect 11 0 8 0;
#X connect 12 0 13 0;
#X connect 13 0 1 0;
#X connect 15 0 2 0;
#X connect 16 0 23 0;
#X connect 18 0 17 0;
#X connect 19 0 18 0;
#X connect 22 0 20 0;
#X connect 22 0 20 1;
#X connect 24 0 22 0;
#X connect 25 0 26 0;
#X connect 27 0 28 0;
#X connect 29 0 30 0;
#X connect 31 0 2 0;
#X connect 32 0 2 0;
#X connect 33 0 2 0;
#X connect 34 0 63 0;
#X connect 35 0 22 0;
#X connect 39 0 41 0;
#X connect 40 0 41 0;
#X connect 41 0 20 0;
#X connect 41 0 20 1;
#X connect 42 0 44 0;
#X connect 43 0 44 0;
#X connect 44 0 20 0;
#X connect 44 0 20 1;
#X connect 45 0 47 0;
#X connect 46 0 47 0;
#X connect 47 0 20 0;
#X connect 47 0 20 1;
#X connect 48 0 34 0;
#X connect 48 0 64 0;
#X connect 49 0 56 1;
#X connect 49 0 74 0;
#X connect 55 0 56 0;
#X connect 56 0 75 0;
#X connect 67 0 69 0;
#X connect 68 0 69 0;
#X connect 69 0 20 0;
#X connect 69 0 20 1;
#X connect 70 0 16 0;
#X connect 70 1 25 0;
#X connect 70 2 27 0;
#X connect 70 3 29 0;
#X connect 71 0 73 0;
#X connect 72 0 71 0;
#X connect 75 0 50 0;
#X connect 75 1 51 0;
#X connect 75 2 52 0;
#X connect 75 3 53 0;
#X connect 75 4 76 0;
