#N canvas 0 0 1920 997 10;
#X declare -lib mrpeach;
#X obj -115 33 import mrpeach;
#X obj -462 364 udpsend;
#X obj -302 305 packOSC;
#X text -291 70 Boys' room;
#X text -259 124 Ladies' room;
#X msg -412 263 disconnect;
#X obj 162 35 udpreceive 80085;
#X msg -455 71 connect 10.10.80.48 80085;
#X obj 162 73 unpackOSC;
#X obj -455 43 bng 15 250 50 0 empty empty empty 17 7 0 10 -262144
-1 -1;
#X obj -430 98 bng 15 250 50 0 empty empty empty 17 7 0 10 -262144
-1 -1;
#X obj -411 179 bng 15 250 50 0 empty empty empty 17 7 0 10 -262144
-1 -1;
#X msg -411 206 connect localhost 80085;
#X text -250 207 Testing;
#X msg -301 264 send /trigger1;
#X obj 162 136 bng 15 250 50 0 empty empty empty 17 7 0 10 -262144
-1 -1;
#X msg -110 116 \; pd dsp \$1;
#X obj -111 84 tgl 15 0 empty empty empty 17 7 0 10 -262144 -1 -1 1
1;
#X obj -111 55 loadbang;
#X obj 289 955 dac~ 1 2;
#N canvas 0 0 450 300 (subpatch) 0;
#X array sf-trigger1 77971 float 0;
#X coords 0 1 77971 -1 130 70 1;
#X restore -458 457 graph;
#X obj 118 767 tabplay~ sf-trigger1;
#X obj 162 161 s trigger1;
#X obj 131 746 r trigger1;
#X obj 233 136 bng 15 250 50 0 empty empty empty 17 7 0 10 -262144
-1 -1;
#X obj 233 161 s trigger2;
#X obj 304 135 bng 15 250 50 0 empty empty empty 17 7 0 10 -262144
-1 -1;
#X obj 304 160 s trigger3;
#X obj 375 135 bng 15 250 50 0 empty empty empty 17 7 0 10 -262144
-1 -1;
#X obj 375 160 s trigger4;
#X msg -202 264 send /trigger2;
#X msg -103 263 send /trigger3;
#X msg 1 263 send /trigger4;
#X obj 762 397 bng 60 250 50 0 empty empty Drum_set 17 7 0 10 -4034
-1 -1;
#X obj 118 726 r file_trigger1;
#N canvas 0 0 450 300 (subpatch) 0;
#X array sf-trigger2 77971 float 0;
#X coords 0 1 77971 -1 130 70 1;
#X restore -462 555 graph;
#N canvas 0 0 450 300 (subpatch) 0;
#X array sf-trigger3 77971 float 0;
#X coords 0 1 77971 -1 130 70 1;
#X restore -462 654 graph;
#N canvas 0 0 450 300 (subpatch) 0;
#X array sf-trigger4 77971 float 0;
#X coords 0 1 77971 -1 130 70 1;
#X restore -462 757 graph;
#X obj 249 726 r file_trigger2;
#X obj 262 746 r trigger2;
#X obj 249 767 tabplay~ sf-trigger2;
#X obj 384 726 r file_trigger3;
#X obj 397 746 r trigger3;
#X obj 384 767 tabplay~ sf-trigger3;
#X obj 519 726 r file_trigger4;
#X obj 532 746 r trigger4;
#X obj 519 767 tabplay~ sf-trigger4;
#X obj 762 357 loadbang;
#X obj 301 379 key;
#X obj 267 621 s trigger1;
#X obj 296 601 s trigger2;
#X obj 325 582 s trigger3;
#X obj 354 562 s trigger4;
#X text 170 291 W = sample 1 A = sample 2 S = sample 3 D = sample 4
;
#X obj 280 320 tgl 45 0 empty empty Keyboard_control 17 7 0 10 -260097
-1 -1 1 1;
#X obj 280 410 gate;
#X text -459 417 LOCAL TRIGGERS;
#N canvas 0 0 450 300 (subpatch) 0;
#X array sf-remote1 77971 float 0;
#X coords 0 1 77971 -1 130 70 1;
#X restore -305 458 graph;
#N canvas 0 0 450 300 (subpatch) 0;
#X array sf-remote2 77971 float 0;
#X coords 0 1 77971 -1 130 70 1;
#X restore -309 556 graph;
#N canvas 0 0 450 300 (subpatch) 0;
#X array sf-remote3 77971 float 0;
#X coords 0 1 77971 -1 130 70 1;
#X restore -309 655 graph;
#N canvas 0 0 450 300 (subpatch) 0;
#X array sf-remote4 77971 float 0;
#X coords 0 1 77971 -1 130 70 1;
#X restore -309 758 graph;
#X text -306 418 REMOTE TRIGGERS;
#N canvas 1033 318 691 487 KIT1_LOCAL 0;
#X obj 62 123 soundfiler;
#X obj 62 149 s file_trigger1;
#X obj 183 156 soundfiler;
#X obj 183 182 s file_trigger2;
#X msg 62 98 read kit1/171104__dwsd__kick-gettinglaid.wav sf-trigger1
;
#X msg 183 130 read kit1/13750__hookhead__snare-2.aif sf-trigger2;
#X obj 308 186 soundfiler;
#X obj 308 212 s file_trigger3;
#X msg 308 160 read kit1/802__bdu__closehatac.aif sf-trigger3;
#X obj 419 225 soundfiler;
#X msg 419 191 read kit1/162312__britishpirate93__18-inch-crash.wav
sf-trigger4;
#X obj 419 251 s file_trigger4;
#X obj 63 26 inlet;
#X connect 0 0 1 0;
#X connect 2 0 3 0;
#X connect 4 0 0 0;
#X connect 5 0 2 0;
#X connect 6 0 7 0;
#X connect 8 0 6 0;
#X connect 9 0 11 0;
#X connect 10 0 9 0;
#X connect 12 0 4 0;
#X connect 12 0 5 0;
#X connect 12 0 8 0;
#X connect 12 0 10 0;
#X restore 762 480 pd KIT1_LOCAL;
#N canvas 1033 318 673 440 SECRET 0;
#X obj 62 123 soundfiler;
#X obj 62 26 inlet;
#X msg 62 98 read 245788__manchesterprod2__male-ahhhh.wav sf-secret1
;
#X obj 62 149 s file_secret1;
#X connect 0 0 3 0;
#X connect 1 0 2 0;
#X connect 2 0 0 0;
#X restore 639 399 pd SECRET SOUNDS;
#N canvas 0 0 450 300 (subpatch) 0;
#X array sf-secret1 77971 float 0;
#X coords 0 1 77971 -1 130 70 1;
#X restore -144 455 graph;
#X text -145 415 SECRET TRIGGERS;
#X obj -10 726 r file_secret1;
#X obj 3 746 r secret1;
#X obj -10 767 tabplay~ sf-secret1;
#X obj 162 103 routeOSC /trigger1 /trigger2 /trigger3 /trigger4;
#X obj 585 135 bng 15 250 50 0 empty empty empty 17 7 0 10 -262144
-1 -1;
#X obj 585 102 routeOSC /secret1;
#X obj 585 160 s secret1;
#X floatatom 346 416 5 0 0 0 - - -;
#X obj 280 448 route 119 97 115 100 45;
#X obj 388 503 s secret1;
#N canvas 0 0 1920 997 KIT2_LOCAL 0;
#X obj 62 123 soundfiler;
#X obj 62 149 s file_trigger1;
#X obj 183 156 soundfiler;
#X obj 183 182 s file_trigger2;
#X obj 308 186 soundfiler;
#X obj 308 212 s file_trigger3;
#X obj 419 225 soundfiler;
#X obj 419 251 s file_trigger4;
#X obj 63 26 inlet;
#X msg 62 98 read 808/183102__dwsd__clp-bodacious.wav sf-trigger1;
#X msg 419 191 read 808/183125__dwsd__prc-dust808popperc.wav sf-trigger4
;
#X msg 183 130 read 808/183125__dwsd__prc-dust808popperc.wav sf-trigger2
;
#X msg 308 160 read 808/183104__dwsd__hat-bodacious.wav sf-trigger3
;
#X connect 0 0 1 0;
#X connect 2 0 3 0;
#X connect 4 0 5 0;
#X connect 6 0 7 0;
#X connect 8 0 9 0;
#X connect 8 0 11 0;
#X connect 8 0 12 0;
#X connect 8 0 10 0;
#X connect 9 0 0 0;
#X connect 10 0 6 0;
#X connect 11 0 2 0;
#X connect 12 0 4 0;
#X restore 853 478 pd KIT2_LOCAL;
#X text 766 457 CLASSIC;
#X obj 853 397 bng 60 250 50 0 empty empty Drum_set 17 7 0 10 -204800
-1 -1;
#X text 857 459 808;
#X text 764 499 1: KICK;
#X text 763 516 2: SNARE;
#X text 765 532 3: HI-HAT;
#X text 765 551 4: CRASH;
#X text 851 533 3: HI-HAT;
#X text 851 553 4: POPPER;
#X text 850 500 1: ?;
#X text 849 517 2: CLAP;
#X obj 119 792 sfx;
#X obj 267 572 bng 15 250 50 0 empty empty empty 17 7 0 10 -262144
-1 -1;
#X obj 290 566 bng 15 250 50 0 empty empty empty 17 7 0 10 -262144
-1 -1;
#X obj 319 557 bng 15 250 50 0 empty empty empty 17 7 0 10 -262144
-1 -1;
#X obj 350 536 bng 15 250 50 0 empty empty empty 17 7 0 10 -262144
-1 -1;
#X obj 388 481 bng 15 250 50 0 empty empty empty 17 7 0 10 -262144
-1 -1;
#X obj 824 698 mtof;
#X obj 824 726 phasor~;
#X msg 787 636 69;
#X msg 842 646 0;
#X obj 900 685 hsl 128 15 0 1 0 0 empty empty empty -2 -8 0 10 -262144
-1 -1 0 1;
#X obj 824 754 *~;
#X obj 764 607 notein;
#X msg -430 125 connect 10.10.80.61 80085;
#N canvas 0 0 1920 997 KIT2_LOCAL 0;
#X obj 62 123 soundfiler;
#X obj 62 149 s file_trigger1;
#X obj 183 156 soundfiler;
#X obj 183 182 s file_trigger2;
#X obj 308 186 soundfiler;
#X obj 308 212 s file_trigger3;
#X obj 419 225 soundfiler;
#X obj 419 251 s file_trigger4;
#X obj 63 26 inlet;
#X msg 62 98 read banjo/banjo_B4_very-long_forte_normal.wav sf-trigger1
;
#X msg 183 130 read banjo/banjo_C4_very-long_forte_normal.wav sf-trigger2
;
#X msg 308 160 read banjo/banjo_F4_very-long_forte_normal.wav sf-trigger3
;
#X msg 419 191 read banjo/banjo_G4_very-long_piano_normal.wav sf-trigger4
;
#X connect 0 0 1 0;
#X connect 2 0 3 0;
#X connect 4 0 5 0;
#X connect 6 0 7 0;
#X connect 8 0 9 0;
#X connect 8 0 10 0;
#X connect 8 0 11 0;
#X connect 8 0 12 0;
#X connect 9 0 0 0;
#X connect 10 0 2 0;
#X connect 11 0 4 0;
#X connect 12 0 6 0;
#X restore 948 480 pd KIT2_LOCAL;
#X obj 948 399 bng 60 250 50 0 empty empty Banjo 17 7 0 10 -232576
-1 -1;
#X text 952 461 808;
#X text 945 502 1: B4;
#X text 944 519 2: C4;
#X text 946 535 3: F4;
#X text 946 555 4: G4;
#X connect 2 0 1 0;
#X connect 5 0 1 0;
#X connect 6 0 8 0;
#X connect 7 0 1 0;
#X connect 8 0 69 0;
#X connect 8 0 71 0;
#X connect 9 0 7 0;
#X connect 10 0 101 0;
#X connect 11 0 12 0;
#X connect 12 0 1 0;
#X connect 14 0 2 0;
#X connect 15 0 22 0;
#X connect 17 0 16 0;
#X connect 18 0 17 0;
#X connect 21 0 88 0;
#X connect 23 0 21 0;
#X connect 24 0 25 0;
#X connect 26 0 27 0;
#X connect 28 0 29 0;
#X connect 30 0 2 0;
#X connect 31 0 2 0;
#X connect 32 0 2 0;
#X connect 33 0 62 0;
#X connect 34 0 21 0;
#X connect 38 0 40 0;
#X connect 39 0 40 0;
#X connect 40 0 19 0;
#X connect 40 0 19 1;
#X connect 41 0 43 0;
#X connect 42 0 43 0;
#X connect 43 0 19 0;
#X connect 43 0 19 1;
#X connect 44 0 46 0;
#X connect 45 0 46 0;
#X connect 46 0 19 0;
#X connect 46 0 19 1;
#X connect 47 0 33 0;
#X connect 47 0 63 0;
#X connect 48 0 55 1;
#X connect 48 0 73 0;
#X connect 54 0 55 0;
#X connect 55 0 74 0;
#X connect 66 0 68 0;
#X connect 67 0 68 0;
#X connect 68 0 19 0;
#X connect 68 0 19 1;
#X connect 69 0 15 0;
#X connect 69 1 24 0;
#X connect 69 2 26 0;
#X connect 69 3 28 0;
#X connect 70 0 72 0;
#X connect 71 0 70 0;
#X connect 74 0 89 0;
#X connect 74 1 90 0;
#X connect 74 2 91 0;
#X connect 74 3 92 0;
#X connect 74 4 93 0;
#X connect 78 0 76 0;
#X connect 88 0 19 0;
#X connect 88 0 19 1;
#X connect 89 0 49 0;
#X connect 90 0 50 0;
#X connect 91 0 51 0;
#X connect 92 0 52 0;
#X connect 93 0 75 0;
#X connect 94 0 95 0;
#X connect 95 0 99 0;
#X connect 96 0 94 0;
#X connect 97 0 94 0;
#X connect 98 0 99 1;
#X connect 100 0 96 0;
#X connect 101 0 1 0;
#X connect 103 0 102 0;
