#N canvas 2553 333 1186 632 10;
#X obj 105 265 s localSample1;
#X obj 333 133 s localSample2;
#X obj 633 -191 s localSample4;
#X obj 481 -28 s localSample3;
#X obj 530 -295 inlet;
#X obj 481 -53 prepend symbol;
#X obj 633 -214 prepend symbol;
#X obj 333 105 prepend symbol;
#X obj 105 242 prepend symbol;
#X obj 633 -234 makefilename dynamicKits/%s/son4.wav;
#X obj 481 -74 makefilename dynamicKits/%s/son3.wav;
#X obj 333 85 makefilename dynamicKits/%s/son2.wav;
#X obj 105 222 makefilename dynamicKits/%s/son1.wav;
#X connect 4 0 9 0;
#X connect 4 0 10 0;
#X connect 4 0 11 0;
#X connect 4 0 12 0;
#X connect 5 0 3 0;
#X connect 6 0 2 0;
#X connect 7 0 1 0;
#X connect 8 0 0 0;
#X connect 9 0 6 0;
#X connect 10 0 5 0;
#X connect 11 0 7 0;
#X connect 12 0 8 0;
