#N canvas 2325 355 1186 632 10;
#X obj 105 -303 inlet;
#X obj 72 178 s localSample1;
#X obj 270 73 s localSample2;
#X obj 580 -125 s localSample4;
#X text 147 -303 bang to load samples;
#X obj 561 -295 inlet;
#X text 607 -297 0: local / 1: remote;
#X obj 580 -154 gate 2;
#X obj 561 -262 + 1;
#X obj 677 -125 s remoteSample4;
#X obj 448 -23 s localSample3;
#X obj 545 -23 s remoteSample3;
#X obj 448 -53 gate 2;
#X obj 270 45 gate 2;
#X obj 369 73 s remoteSample2;
#X obj 72 142 gate 2;
#X obj 168 180 s remoteSample1;
#X msg 110 111 symbol banjo/banjo_B4_very-long_forte_normal.wav;
#X msg 303 13 symbol banjo/banjo_C4_very-long_forte_normal.wav;
#X msg 481 -83 symbol banjo/banjo_F4_very-long_forte_normal.wav;
#X msg 613 -191 symbol banjo/banjo_G4_very-long_piano_normal.wav;
#X connect 0 0 17 0;
#X connect 0 0 18 0;
#X connect 0 0 19 0;
#X connect 0 0 20 0;
#X connect 5 0 8 0;
#X connect 7 0 3 0;
#X connect 7 1 9 0;
#X connect 8 0 7 0;
#X connect 8 0 12 0;
#X connect 8 0 13 0;
#X connect 8 0 15 0;
#X connect 12 0 10 0;
#X connect 12 1 11 0;
#X connect 13 0 2 0;
#X connect 13 1 14 0;
#X connect 15 0 1 0;
#X connect 15 1 16 0;
#X connect 17 0 15 1;
#X connect 18 0 13 1;
#X connect 19 0 12 1;
#X connect 20 0 7 1;
