#N canvas 2556 328 1186 632 10;
#X obj 72 298 s localSample1;
#X obj 300 153 s localSample2;
#X obj 600 -165 s localSample4;
#X obj 291 -295 inlet;
#X text 337 -297 0: local / 1: remote;
#X obj 600 -194 gate 2;
#X obj 291 -262 + 1;
#X obj 697 -165 s remoteSample4;
#X obj 448 -3 s localSample3;
#X obj 547 -3 s remoteSample3;
#X obj 448 -33 gate 2;
#X obj 300 125 gate 2;
#X obj 399 153 s remoteSample2;
#X obj 72 262 gate 2;
#X obj 168 300 s remoteSample1;
#X obj 530 -295 inlet;
#X obj 481 -53 prepend symbol;
#X obj 633 -214 prepend symbol;
#X obj 333 105 prepend symbol;
#X obj 105 242 prepend symbol;
#X obj 633 -234 makefilename dynamicKits/%s/son4.wav;
#X obj 481 -74 makefilename dynamicKits/%s/son3.wav;
#X obj 333 85 makefilename dynamicKits/%s/son2.wav;
#X obj 105 222 makefilename dynamicKits/%s/son1.wav;
#X connect 3 0 6 0;
#X connect 5 0 2 0;
#X connect 5 1 7 0;
#X connect 6 0 5 0;
#X connect 6 0 10 0;
#X connect 6 0 11 0;
#X connect 6 0 13 0;
#X connect 10 0 8 0;
#X connect 10 1 9 0;
#X connect 11 0 1 0;
#X connect 11 1 12 0;
#X connect 13 0 0 0;
#X connect 13 1 14 0;
#X connect 15 0 20 0;
#X connect 15 0 21 0;
#X connect 15 0 22 0;
#X connect 15 0 23 0;
#X connect 16 0 10 1;
#X connect 17 0 5 1;
#X connect 18 0 11 1;
#X connect 19 0 13 1;
#X connect 20 0 17 0;
#X connect 21 0 16 0;
#X connect 22 0 18 0;
#X connect 23 0 19 0;
