#N canvas 65 112 1175 853 10;
#X obj 307 730 outlet~;
#X obj 420 732 outlet~;
#X obj 30 85 tabplay~ sf-trigger1;
#X obj 43 33 r trigger1;
#X obj 30 14 r file_trigger1;
#X obj 161 14 r file_trigger2;
#X obj 174 33 r trigger2;
#X obj 161 85 tabplay~ sf-trigger2;
#X obj 296 14 r file_trigger3;
#X obj 309 33 r trigger3;
#X obj 296 85 tabplay~ sf-trigger3;
#X obj 431 14 r file_trigger4;
#X obj 444 33 r trigger4;
#X obj 431 85 tabplay~ sf-trigger4;
#X obj 668 25 r file_secret1;
#X obj 681 44 r secret1;
#X obj 668 96 tabplay~ sf-secret1;
#X text 480 256 file_secret1 will be file data;
#X text 480 278 secret1 will be bang to play;
#X obj 681 74 bng 15 250 50 0 empty empty empty 17 7 0 10 -262144 -1
-1;
#X obj 43 65 bng 15 250 50 0 empty empty empty 17 7 0 10 -262144 -1
-1;
#X obj 174 64 bng 15 250 50 0 empty empty empty 17 7 0 10 -262144 -1
-1;
#X obj 309 64 bng 15 250 50 0 empty empty empty 17 7 0 10 -262144 -1
-1;
#X obj 444 64 bng 15 250 50 0 empty empty empty 17 7 0 10 -262144 -1
-1;
#X obj 816 75 bng 15 250 50 0 empty empty empty 17 7 0 10 -262144 -1
-1;
#X obj 803 26 r file_secret2;
#X obj 816 45 r secret2;
#X obj 803 97 tabplay~ sf-secret2;
#X obj 956 77 bng 15 250 50 0 empty empty empty 17 7 0 10 -262144 -1
-1;
#X obj 943 28 r file_secret3;
#X obj 956 47 r secret3;
#X obj 943 99 tabplay~ sf-secret3;
#X connect 2 0 0 0;
#X connect 2 0 1 0;
#X connect 3 0 2 0;
#X connect 3 0 20 0;
#X connect 4 0 2 0;
#X connect 5 0 7 0;
#X connect 6 0 7 0;
#X connect 6 0 21 0;
#X connect 7 0 1 0;
#X connect 7 0 0 0;
#X connect 8 0 10 0;
#X connect 9 0 10 0;
#X connect 9 0 22 0;
#X connect 10 0 0 0;
#X connect 10 0 1 0;
#X connect 11 0 13 0;
#X connect 12 0 13 0;
#X connect 12 0 23 0;
#X connect 13 0 0 0;
#X connect 13 0 1 0;
#X connect 14 0 16 0;
#X connect 15 0 16 0;
#X connect 15 0 19 0;
#X connect 16 0 0 0;
#X connect 16 0 1 0;
#X connect 25 0 27 0;
#X connect 26 0 24 0;
#X connect 26 0 27 0;
#X connect 27 0 0 0;
#X connect 27 0 1 0;
#X connect 29 0 31 0;
#X connect 30 0 28 0;
#X connect 30 0 31 0;
#X connect 31 0 0 0;
#X connect 31 0 1 0;
