#N canvas 116 116 1175 853 10;
#X obj 143 312 outlet~;
#X obj 256 314 outlet~;
#X obj 183 82 r file_remote1;
#X obj 314 82 r file_remote2;
#X obj 449 82 r file_remote3;
#X obj 584 81 r file_remote4;
#X obj 196 102 r remote1;
#X obj 183 123 tabplay~ sf-remote1;
#X obj 327 102 r remote2;
#X obj 314 123 tabplay~ sf-remote2;
#X obj 462 102 r remote3;
#X obj 449 123 tabplay~ sf-remote3;
#X obj 597 102 r remote4;
#X obj 584 123 tabplay~ sf-remote4;
#X text 480 256 file_remote1 will be file data;
#X text 480 278 remote1 will be bang to play;
#X connect 2 0 7 0;
#X connect 3 0 9 0;
#X connect 4 0 11 0;
#X connect 5 0 13 0;
#X connect 6 0 7 0;
#X connect 7 0 0 0;
#X connect 7 0 1 0;
#X connect 8 0 9 0;
#X connect 9 0 1 0;
#X connect 9 0 0 0;
#X connect 10 0 11 0;
#X connect 11 0 0 0;
#X connect 11 0 1 0;
#X connect 12 0 13 0;
#X connect 13 0 0 0;
#X connect 13 0 1 0;
