#N canvas 65 87 1215 718 10;
#X obj 176 32 inlet;
#X text 169 3 true: local \, false: remote;
#X obj 285 225 inlet;
#X obj 252 273 gate 2;
#X obj 176 73 + 1;
#X text -7 74 input is 0/1 \, gate needs 1/2;
#X text 280 199 Audio sample 1 path;
#X obj 252 429 soundfiler;
#X obj 252 454 s file_trigger1;
#X obj 285 332 soundfiler;
#X obj 285 357 s file_remote1;
#X obj 544 224 inlet;
#X obj 511 272 gate 2;
#X obj 511 428 soundfiler;
#X obj 544 331 soundfiler;
#X text 542 199 Audio sample 2 path;
#X obj 544 356 s file_remote2;
#X obj 511 453 s file_trigger2;
#X obj 795 226 inlet;
#X obj 762 274 gate 2;
#X obj 762 430 soundfiler;
#X obj 795 333 soundfiler;
#X text 793 201 Audio sample 3 path;
#X obj 795 358 s file_remote3;
#X obj 762 455 s file_trigger3;
#X obj 1037 224 inlet;
#X obj 1004 272 gate 2;
#X obj 1004 428 soundfiler;
#X obj 1037 331 soundfiler;
#X text 1035 199 Audio sample 4 path;
#X obj 1037 356 s file_remote4;
#X obj 1004 453 s file_trigger4;
#X msg 285 306 read -resize \$1 sf-remote1;
#X msg 252 402 read -resize \$1 sf-trigger1;
#X msg 511 402 read -resize \$1 sf-trigger2;
#X msg 544 305 read -resize \$1 sf-remote2;
#X msg 795 307 read -resize \$1 sf-remote3;
#X msg 762 404 read -resize \$1 sf-trigger3;
#X msg 1004 402 read -resize \$1 sf-trigger4;
#X msg 1037 305 read -resize \$1 sf-remote4;
#X connect 0 0 4 0;
#X connect 2 0 3 1;
#X connect 3 0 33 0;
#X connect 3 1 32 0;
#X connect 4 0 3 0;
#X connect 4 0 12 0;
#X connect 4 0 19 0;
#X connect 4 0 26 0;
#X connect 7 0 8 0;
#X connect 9 0 10 0;
#X connect 11 0 12 1;
#X connect 12 0 34 0;
#X connect 12 1 35 0;
#X connect 13 0 17 0;
#X connect 14 0 16 0;
#X connect 18 0 19 1;
#X connect 19 0 37 0;
#X connect 19 1 36 0;
#X connect 20 0 24 0;
#X connect 21 0 23 0;
#X connect 25 0 26 1;
#X connect 26 0 38 0;
#X connect 26 1 39 0;
#X connect 27 0 31 0;
#X connect 28 0 30 0;
#X connect 32 0 9 0;
#X connect 33 0 7 0;
#X connect 34 0 13 0;
#X connect 35 0 14 0;
#X connect 36 0 21 0;
#X connect 37 0 20 0;
#X connect 38 0 27 0;
#X connect 39 0 28 0;
