#N canvas 462 41 734 528 10;
#X declare -lib mrpeach;
#X declare -lib zexy;
#X obj 556 40 import mrpeach;
#X obj 238 17 udpreceive 1919;
#X obj 238 38 unpackOSC;
#X floatatom 45 470 5 0 0 0 - - -;
#X floatatom 108 470 5 0 0 0 - - -;
#X obj 45 448 split 8 190;
#X floatatom 102 402 5 0 0 0 - - -;
#X floatatom 165 402 5 0 0 0 - - -;
#X obj 102 380 split 8 190;
#X floatatom 159 336 5 0 0 0 - - -;
#X floatatom 222 336 5 0 0 0 - - -;
#X obj 159 314 split 8 190;
#X floatatom 216 272 5 0 0 0 - - -;
#X floatatom 279 272 5 0 0 0 - - -;
#X obj 216 250 split 8 190;
#X obj 556 60 import zexy;
#X floatatom 45 136 5 0 0 0 - - -;
#X floatatom 102 136 5 0 0 0 - - -;
#X floatatom 159 136 5 0 0 0 - - -;
#X floatatom 216 136 5 0 0 0 - - -;
#X obj 45 491 s trigger1;
#X obj 102 423 s trigger2;
#X obj 159 357 s trigger3;
#X obj 216 293 s trigger4;
#X obj 45 109 routeOSC /sonar1 /sonar2 /sonar3 /sonar4 /djpipi;
#X obj 400 94 symbol;
#X obj 400 115 s toKits;
#X obj 400 73 routeOSC /changekit;
#X text 553 83 TO DO: Declenche DJ PIPI;
#X connect 1 0 2 0;
#X connect 2 0 24 0;
#X connect 2 0 27 0;
#X connect 3 0 20 0;
#X connect 5 0 3 0;
#X connect 5 1 4 0;
#X connect 6 0 21 0;
#X connect 8 0 6 0;
#X connect 8 1 7 0;
#X connect 9 0 22 0;
#X connect 11 0 9 0;
#X connect 11 1 10 0;
#X connect 12 0 23 0;
#X connect 14 0 12 0;
#X connect 14 1 13 0;
#X connect 16 0 5 0;
#X connect 17 0 8 0;
#X connect 18 0 11 0;
#X connect 19 0 14 0;
#X connect 24 0 16 0;
#X connect 24 1 17 0;
#X connect 24 2 18 0;
#X connect 24 3 19 0;
#X connect 25 0 26 0;
#X connect 27 0 25 0;
